<svg xmlns="http://www.w3.org/2000/svg" viewBox="0 0 240 200" fill="none" aria-hidden="true">
  <g stroke="none" fill="currentColor">
    <g transform="translate(38,188) rotate(-78) scale(0.62)">
      <path d="M0,0 C-7,-25 -6,-60 0,-100 C6,-60 7,-25 0,0 Z"/>
      <path d="M0,-6 L0,-90" stroke="currentColor" stroke-width="1" opacity="0.35" fill="none"/>
    </g>
    <g transform="translate(38,188) rotate(-58) scale(0.8)">
      <path d="M0,0 C-7,-25 -6,-60 0,-100 C6,-60 7,-25 0,0 Z"/>
      <path d="M0,-6 L0,-90" stroke="currentColor" stroke-width="1" opacity="0.35" fill="none"/>
    </g>
    <g transform="translate(38,188) rotate(-34) scale(1)">
      <path d="M0,0 C-8,-28 -7,-65 0,-108 C7,-65 8,-28 0,0 Z"/>
      <path d="M0,-6 L0,-98" stroke="currentColor" stroke-width="1.1" opacity="0.35" fill="none"/>
    </g>
    <g transform="translate(38,188) rotate(-9) scale(0.68)">
      <path d="M0,0 C-6,-22 -5,-52 0,-88 C5,-52 6,-22 0,0 Z"/>
      <path d="M0,-6 L0,-78" stroke="currentColor" stroke-width="1" opacity="0.35" fill="none"/>
    </g>
    <g transform="translate(38,188) rotate(10) scale(1.12)">
      <path d="M0,0 C-10,-30 -9,-70 0,-115 C9,-70 10,-30 0,0 Z"/>
      <path d="M0,-6 L0,-104" stroke="currentColor" stroke-width="1.2" opacity="0.35" fill="none"/>
    </g>
    <g transform="translate(38,188) rotate(30) scale(0.96)">
      <path d="M0,0 C-9,-27 -8,-63 0,-104 C8,-63 9,-27 0,0 Z"/>
      <path d="M0,-6 L0,-94" stroke="currentColor" stroke-width="1.1" opacity="0.35" fill="none"/>
    </g>
    <g transform="translate(38,188) rotate(49) scale(0.78)">
      <path d="M0,0 C-7,-24 -6,-56 0,-92 C6,-56 7,-24 0,0 Z"/>
      <path d="M0,-6 L0,-82" stroke="currentColor" stroke-width="1" opacity="0.35" fill="none"/>
    </g>
  </g>
</svg>
